<?xml version="1.0" standalone="no"?>
<!DOCTYPE svg PUBLIC "-//W3C//DTD SVG 20010904//EN"
 "http://www.w3.org/TR/2001/REC-SVG-20010904/DTD/svg10.dtd">
<svg version="1.0" xmlns="http://www.w3.org/2000/svg"
 width="869.000000pt" height="201.000000pt" viewBox="0 0 869.000000 201.000000"
 preserveAspectRatio="xMidYMid meet">
<metadata>
Created by potrace 1.16, written by Peter Selinger 2001-2019
</metadata>
<g transform="translate(0.000000,201.000000) scale(0.100000,-0.100000)"
fill="#000000" stroke="none">
<path d="M7320 1993 c-76 -4 -226 -33 -244 -47 -9 -7 -26 -76 -46 -186 -17
-96 -65 -344 -107 -550 -100 -497 -102 -507 -102 -568 -1 -36 3 -54 13 -58 8
-3 53 8 100 25 l86 30 14 -22 c8 -12 20 -34 27 -50 11 -24 10 -29 -7 -42 -38
-29 -171 -104 -236 -134 l-66 -29 -7 -64 c-11 -106 18 -197 77 -241 91 -68
199 -61 378 24 92 43 210 118 210 133 0 21 -52 96 -66 96 -9 0 -53 -13 -99
-30 l-84 -29 -6 42 c-4 23 0 82 8 131 13 83 13 93 -5 150 -40 124 -34 379 13
549 26 94 87 208 148 280 58 67 55 59 77 207 29 196 22 397 -14 388 -4 -1 -32
-3 -62 -5z"/>
<path d="M593 1911 c-57 -21 -168 -85 -180 -104 -22 -34 -249 -1077 -278
-1272 -10 -73 -21 -114 -31 -122 -14 -10 -57 -198 -78 -340 l-6 -43 67 0 c110
1 256 18 314 37 l53 18 13 100 c19 154 55 331 169 825 82 353 110 460 126 477
20 22 47 125 48 185 0 20 -4 26 -15 22 -13 -5 -15 7 -16 77 0 46 -6 100 -13
119 -12 34 -15 35 -67 37 -34 2 -74 -4 -106 -16z"/>
<path d="M2095 1868 c-11 -111 -45 -288 -95 -503 -125 -539 -156 -765 -104
-765 8 0 44 14 81 30 36 17 71 30 77 30 12 0 56 -72 56 -92 0 -26 -174 -145
-264 -181 -74 -30 -76 -32 -76 -101 0 -171 90 -276 235 -276 59 0 145 25 222
64 75 38 223 142 223 157 0 20 -51 109 -62 109 -6 0 -42 -14 -79 -31 -38 -17
-75 -29 -84 -26 -20 8 -20 109 -1 231 12 70 13 107 4 179 -19 157 14 396 72
532 11 26 41 79 67 117 51 76 61 116 62 239 1 51 -6 100 -20 144 -37 122 -147
205 -270 205 l-37 0 -7 -62z"/>
<path d="M1352 1875 c-38 -20 -75 -42 -82 -50 -6 -8 -22 -67 -35 -132 -13 -65
-48 -222 -78 -348 -122 -505 -157 -695 -157 -844 0 -77 -1 -82 -24 -91 -13 -5
-27 -14 -31 -20 -10 -16 -32 -163 -40 -269 l-8 -94 139 7 c133 6 244 25 284
46 16 9 18 23 18 112 1 163 37 360 152 818 27 107 61 254 75 325 14 72 35 148
45 170 20 43 48 201 37 212 -4 3 -18 -4 -31 -16 l-23 -22 -21 59 c-24 63 -73
127 -120 154 -29 18 -31 17 -100 -17z"/>
<path d="M4166 1850 c-45 -14 -102 -58 -133 -102 -25 -37 -28 -50 -28 -117 0
-62 4 -83 24 -114 37 -60 133 -97 214 -82 30 6 35 11 34 32 -2 31 11 39 85 53
54 11 58 14 79 56 42 88 11 207 -68 255 -40 25 -156 36 -207 19z"/>
<path d="M3346 1192 c-10 -19 -22 -29 -30 -26 -19 7 -27 -20 -32 -105 -2 -41
-9 -91 -14 -110 -16 -54 -40 -229 -40 -288 0 -94 9 -99 100 -53 33 17 61 30
63 30 2 0 14 -23 27 -51 l24 -51 -21 -16 c-69 -56 -96 -74 -170 -113 -77 -40
-83 -45 -83 -75 0 -28 -6 -34 -45 -53 -82 -38 -130 -25 -155 45 -6 16 -28 41
-50 56 -23 16 -43 41 -51 62 -7 20 -17 36 -21 36 -4 0 -29 -16 -54 -36 -61
-46 -112 -71 -177 -88 l-52 -14 2 -45 c3 -98 82 -210 181 -259 37 -18 64 -23
127 -23 70 0 89 4 148 32 38 18 87 47 110 65 25 20 42 28 44 21 3 -7 14 -27
26 -44 66 -98 210 -103 386 -14 71 35 191 121 191 136 0 4 -10 29 -22 54 -26
54 -38 56 -119 14 -34 -17 -63 -28 -66 -25 -3 2 -7 34 -9 70 -2 51 -9 75 -31
107 -26 40 -28 49 -27 143 0 88 8 132 57 331 31 127 57 240 57 252 0 17 -11
23 -67 37 -36 10 -94 20 -129 23 -62 6 -62 5 -78 -25z"/>
<path d="M4153 1211 c-72 -3 -133 -8 -136 -11 -12 -14 -59 -235 -66 -314 -5
-50 -19 -133 -31 -184 -32 -135 -25 -142 92 -88 l58 26 20 -40 c11 -21 20 -45
20 -53 0 -21 -73 -75 -176 -129 -106 -56 -109 -61 -108 -193 1 -138 73 -213
206 -215 96 0 286 82 387 168 l35 29 -18 47 c-10 26 -25 50 -33 53 -8 3 -46
-9 -85 -26 -56 -24 -74 -29 -80 -19 -5 7 -7 83 -5 168 4 141 9 179 61 425 34
161 56 288 54 315 -4 53 10 50 -195 41z"/>
<path d="M6288 1191 c-9 -22 -17 -29 -29 -26 -23 8 -31 -16 -35 -105 -2 -41
-8 -91 -14 -110 -15 -50 -40 -226 -40 -287 0 -94 9 -99 101 -52 34 17 62 29
64 27 8 -9 45 -89 45 -97 0 -16 -111 -93 -193 -135 -72 -37 -77 -42 -77 -72 0
-28 -6 -35 -43 -53 -81 -39 -132 -25 -157 45 -6 16 -28 41 -50 56 -23 16 -43
41 -51 62 -7 20 -17 36 -21 36 -4 0 -29 -16 -54 -36 -61 -46 -112 -71 -177
-88 l-52 -14 2 -47 c2 -59 44 -146 95 -195 84 -82 204 -109 316 -71 66 22 129
58 171 95 16 14 25 17 28 9 2 -7 14 -27 26 -44 66 -98 210 -103 386 -14 71 35
191 121 191 136 0 4 -10 29 -22 54 -26 54 -38 55 -118 15 -38 -19 -61 -26 -66
-19 -3 6 -7 34 -8 64 -2 40 -9 61 -28 84 -73 87 -74 174 -4 523 25 125 46 234
46 242 0 16 -66 35 -157 43 l-64 6 -11 -32z"/>
<path d="M8252 1191 c-7 -18 -17 -28 -28 -28 -21 2 -33 -36 -38 -123 -2 -36
-11 -96 -20 -135 -9 -38 -20 -127 -23 -197 -7 -149 -10 -145 92 -99 l64 29 27
-46 27 -46 -45 -40 c-24 -23 -86 -63 -136 -89 -88 -46 -92 -50 -92 -81 0 -31
-4 -35 -51 -55 -30 -13 -65 -21 -87 -19 -33 3 -40 9 -62 49 -14 26 -42 61 -62
79 -21 17 -43 46 -49 64 l-12 33 -50 -37 c-63 -48 -146 -89 -200 -99 -40 -7
-42 -9 -39 -40 4 -49 38 -139 68 -178 115 -151 319 -160 501 -22 47 35 53 37
53 19 0 -11 16 -38 36 -59 70 -79 201 -79 357 -2 85 42 172 103 191 133 13 21
-26 108 -48 108 -8 0 -43 -13 -77 -30 -47 -22 -65 -26 -71 -17 -29 46 35 502
107 762 14 50 25 98 25 107 0 13 -19 23 -67 38 -92 29 -196 50 -243 50 -33 0
-39 -4 -48 -29z"/>
<path d="M2865 1183 c-68 -35 -164 -137 -208 -221 -35 -67 -37 -74 -37 -169 0
-191 49 -247 170 -192 55 25 60 32 60 91 0 65 26 262 51 386 11 56 19 109 17
116 -2 11 -14 8 -53 -11z"/>
<path d="M4766 1201 c-22 -9 -46 -101 -71 -276 -8 -55 -24 -145 -35 -200 -12
-55 -24 -147 -27 -205 -4 -88 -8 -107 -25 -121 -32 -25 -69 -271 -51 -338 l6
-24 161 6 c89 3 177 10 197 16 l36 11 6 113 c6 108 42 329 93 561 23 106 26
113 67 151 41 37 45 46 60 127 25 127 24 129 -27 79 -46 -45 -56 -43 -56 17 0
52 -13 58 -68 34 -28 -12 -55 -22 -60 -22 -5 0 -21 18 -36 40 -26 40 -27 40
-89 39 -34 0 -71 -4 -81 -8z"/>
<path d="M5805 1183 c-68 -35 -164 -137 -208 -221 -35 -66 -37 -75 -37 -163 0
-201 49 -254 178 -194 l52 24 0 48 c0 66 26 272 51 399 11 58 19 112 17 119
-2 10 -16 6 -53 -12z"/>
<path d="M7779 1188 c-61 -30 -177 -150 -217 -225 -40 -76 -50 -157 -32 -263
16 -97 42 -125 105 -117 23 4 59 14 78 23 35 17 35 17 42 98 10 119 32 277 56
394 11 57 19 105 17 108 -2 2 -24 -6 -49 -18z"/>
</g>
</svg>
