<svg width="310.9124755859375px" height="140.01999511718748px" xmlns="http://www.w3.org/2000/svg" viewBox="94.54376220703125 4.990002441406261 310.9124755859375 140.01999511718748" style="background: rgb(0, 158, 247);" preserveAspectRatio="xMidYMid"><defs><filter id="editing-hover" x="-100%" y="-100%" width="300%" height="300%"><feFlood flood-color="rgba(0%,0%,0%,0)" result="flood"></feFlood><feComposite operator="in" in2="SourceAlpha" in="flood" result="shadow"></feComposite><feOffset dx="-4" dy="-4" in="SourceGraphic" result="offset-1"></feOffset><feOffset dx="4" dy="4" in="shadow" result="offset-2"></feOffset><feMerge><feMergeNode in="offset-2"></feMergeNode><feMergeNode in="offset-1"></feMergeNode></feMerge></filter></defs><g filter="url(#editing-hover)"><g transform="translate(143.18875098228455, 98.875)"><path d="M50.59 0.77L50.59 0.77L50.59 0.77Q48.19 0.77 46.72-0.93L46.72-0.93L46.72-0.93Q45.25-2.62 45.25-5.54L45.25-5.54L45.25-5.54Q45.25-8.45 47.90-20.03L47.90-20.03L47.90-20.03Q50.56-31.62 50.56-34.82L50.56-34.82L50.56-34.82Q50.56-38.02 48.06-38.02L48.06-38.02L48.06-38.02Q44.61-38.02 40.45-34.94L40.45-34.94L40.45-34.94Q40-31.49 37.82-22.88L37.82-22.88L37.82-22.88Q35.65-14.27 34.91-10.14L34.91-10.14L34.91-10.14Q34.18-6.02 34.18-3.78L34.18-3.78L34.18-3.78Q34.18-1.54 34.24-1.02L34.24-1.02L34.24-1.02Q31.74 0.26 25.34 0.26L25.34 0.26L24.13 0.26L24.13 0.26Q24.13-5.12 27.14-18.05L27.14-18.05L27.14-18.05Q30.21-31.23 30.21-34.62L30.21-34.62L30.21-34.62Q30.21-38.02 27.84-38.02L27.84-38.02L27.84-38.02Q24.38-38.02 19.78-34.69L19.78-34.69L19.78-34.69Q19.07-31.17 17.15-23.23L17.15-23.23L17.15-23.23Q12.86-5.06 12.86-1.02L12.86-1.02L12.86-1.02Q10.37 0.26 4.03 0.26L4.03 0.26L2.82 0.26L2.82 0.26Q3.07-2.62 6.21-16.67L6.21-16.67L6.21-16.67Q9.34-30.72 10.11-37.70L10.11-37.70L10.11-37.70Q10.11-38.72 9.44-40.16L9.44-40.16L9.44-40.16Q8.77-41.60 8.06-42.50L8.06-42.50L7.42-43.39L7.62-44.35L7.62-44.35Q11.20-45.44 19.97-45.44L19.97-45.44L19.97-45.44Q20.80-43.90 20.80-41.54L20.80-41.54L20.80-41.54Q20.80-41.02 20.54-38.85L20.54-38.85L20.54-38.85Q27.90-45.44 33.73-45.44L33.73-45.44L33.73-45.44Q36.35-45.44 38.14-43.65L38.14-43.65L38.14-43.65Q39.94-41.86 40.45-38.98L40.45-38.98L40.45-38.98Q48.06-45.44 53.38-45.44L53.38-45.44L53.38-45.44Q56.70-45.44 58.75-43.26L58.75-43.26L58.75-43.26Q60.80-41.09 60.80-37.18L60.80-37.18L60.80-37.18Q60.80-33.28 58.08-22.30L58.08-22.30L58.08-22.30Q55.36-11.33 55.36-6.98L55.36-6.98L55.36-6.98Q55.36-5.12 56-5.12L56-5.12L56-5.12Q56.58-5.12 59.14-6.40L59.14-6.40L60.03-6.78L61.31-4.42L61.31-4.42Q58.56-2.05 55.78-0.64L55.78-0.64L55.78-0.64Q52.99 0.77 50.59 0.77ZM14.53-24.64L14.59-24.96L14.59-24.96Q14.53-24.83 14.53-24.64L14.53-24.64ZM83.07-26.50L83.07-26.50L83.07-26.50Q83.20-26.62 83.78-28.16L83.78-28.16L83.78-28.16Q86.78-28.16 91.84-26.37L91.84-26.37L91.84-26.37Q90.24-21.06 89.28-15.26L89.28-15.26L89.28-15.26Q88.32-9.47 88.32-7.01L88.32-7.01L88.32-7.01Q88.32-4.54 88.83-4.54L88.83-4.54L88.83-4.54Q89.22-4.54 91.65-5.76L91.65-5.76L92.42-6.14L93.57-3.90L93.57-3.90Q92.99-3.39 92.06-2.62L92.06-2.62L92.06-2.62Q91.14-1.86 88.58-0.54L88.58-0.54L88.58-0.54Q86.02 0.77 83.97 0.77L83.97 0.77L83.97 0.77Q80 0.77 79.36-2.82L79.36-2.82L79.36-2.82Q75.26 0.77 71.97 0.77L71.97 0.77L71.97 0.77Q68.67 0.77 66.40-1.79L66.40-1.79L66.40-1.79Q64.13-4.35 64.13-9.86L64.13-9.86L64.13-9.86Q64.13-18.43 67.65-23.39L67.65-23.39L67.65-23.39Q71.17-28.35 76.16-28.35L76.16-28.35L76.16-28.35Q79.74-28.35 83.07-26.50ZM75.78-4.67L75.78-4.67L75.78-4.67Q77.31-4.67 79.23-5.89L79.23-5.89L79.23-5.89Q79.68-14.91 82.24-23.74L82.24-23.74L82.24-23.74Q80.32-24.58 78.98-24.58L78.98-24.58L78.98-24.58Q76.67-24.58 75.04-20.06L75.04-20.06L75.04-20.06Q73.41-15.55 73.41-10.11L73.41-10.11L73.41-10.11Q73.41-4.67 75.78-4.67ZM107.97-24.38L107.97-24.38L107.97-24.38Q107.97-21.70 106.24-15.14L106.24-15.14L106.24-15.14Q104.51-8.58 104.51-6.56L104.51-6.56L104.51-6.56Q104.51-4.54 105.09-4.54L105.09-4.54L105.09-4.54Q105.47-4.54 108.03-5.76L108.03-5.76L108.80-6.14L109.89-3.90L109.89-3.90Q109.31-3.39 108.35-2.62L108.35-2.62L108.35-2.62Q107.39-1.86 104.77-0.54L104.77-0.54L104.77-0.54Q102.14 0.77 99.90 0.77L99.90 0.77L99.90 0.77Q97.66 0.77 96.38-0.61L96.38-0.61L96.38-0.61Q95.10-1.98 95.10-4.32L95.10-4.32L95.10-4.32Q95.10-6.66 96.70-12.64L96.70-12.64L96.70-12.64Q98.30-18.62 98.30-20.42L98.30-20.42L98.30-20.42Q98.30-23.10 96.64-25.47L96.64-25.47L96.06-26.24L96.13-27.07L96.13-27.07Q99.52-28.03 107.14-28.03L107.14-28.03L107.14-28.03Q107.97-27.07 107.97-24.38ZM100.67-35.04L100.67-35.04L100.67-35.04Q99.39-36.29 99.39-38.40L99.39-38.40L99.39-38.40Q99.39-40.51 101.15-42.11L101.15-42.11L101.15-42.11Q102.91-43.71 105.22-43.71L105.22-43.71L105.22-43.71Q107.52-43.71 108.80-42.43L108.80-42.43L108.80-42.43Q110.08-41.15 110.08-39.07L110.08-39.07L110.08-39.07Q110.08-36.99 108.26-35.39L108.26-35.39L108.26-35.39Q106.43-33.79 104.19-33.79L104.19-33.79L104.19-33.79Q101.95-33.79 100.67-35.04ZM113.41 0.19L113.41 0.19L112.96 0.19L112.96 0.19Q112.83-0.32 112.83-2.14L112.83-2.14L112.83-2.14Q112.83-3.97 114.56-11.97L114.56-11.97L114.56-11.97Q116.29-19.97 116.29-21.12L116.29-21.12L116.29-21.12Q116.29-23.10 114.50-25.47L114.50-25.47L113.92-26.24L113.98-27.07L113.98-27.07Q117.44-28.03 125.06-28.03L125.06-28.03L125.06-28.03Q125.82-26.37 125.82-23.36L125.82-23.36L125.82-23.36Q126.53-24.51 128.77-26.43L128.77-26.43L128.77-26.43Q131.01-28.35 133.38-28.35L133.38-28.35L133.38-28.35Q136.83-28.35 136.83-22.34L136.83-22.34L136.83-22.34Q136.51-21.95 135.97-21.34L135.97-21.34L135.97-21.34Q135.42-20.74 133.79-19.65L133.79-19.65L133.79-19.65Q132.16-18.56 130.62-18.30L130.62-18.30L130.62-18.30Q130.56-18.30 129.54-20.03L129.54-20.03L129.54-20.03Q128.51-21.76 128-21.76L128-21.76L128-21.76Q126.40-21.18 125.18-19.84L125.18-19.84L125.18-19.84Q122.24-6.59 122.24-2.69L122.24-2.69L122.24-2.69Q122.24-1.28 122.30-0.70L122.30-0.70L122.30-0.70Q120.06 0.19 113.41 0.19ZM154.50-26.50L154.50-26.50L154.50-26.50Q154.62-26.62 155.20-28.16L155.20-28.16L155.20-28.16Q158.21-28.16 163.26-26.37L163.26-26.37L163.26-26.37Q161.66-21.06 160.70-15.26L160.70-15.26L160.70-15.26Q159.74-9.47 159.74-7.01L159.74-7.01L159.74-7.01Q159.74-4.54 160.26-4.54L160.26-4.54L160.26-4.54Q160.64-4.54 163.07-5.76L163.07-5.76L163.84-6.14L164.99-3.90L164.99-3.90Q164.42-3.39 163.49-2.62L163.49-2.62L163.49-2.62Q162.56-1.86 160-0.54L160-0.54L160-0.54Q157.44 0.77 155.39 0.77L155.39 0.77L155.39 0.77Q151.42 0.77 150.78-2.82L150.78-2.82L150.78-2.82Q146.69 0.77 143.39 0.77L143.39 0.77L143.39 0.77Q140.10 0.77 137.82-1.79L137.82-1.79L137.82-1.79Q135.55-4.35 135.55-9.86L135.55-9.86L135.55-9.86Q135.55-18.43 139.07-23.39L139.07-23.39L139.07-23.39Q142.59-28.35 147.58-28.35L147.58-28.35L147.58-28.35Q151.17-28.35 154.50-26.50ZM147.20-4.67L147.20-4.67L147.20-4.67Q148.74-4.67 150.66-5.89L150.66-5.89L150.66-5.89Q151.10-14.91 153.66-23.74L153.66-23.74L153.66-23.74Q151.74-24.58 150.40-24.58L150.40-24.58L150.40-24.58Q148.10-24.58 146.46-20.06L146.46-20.06L146.46-20.06Q144.83-15.55 144.83-10.11L144.83-10.11L144.83-10.11Q144.83-4.67 147.20-4.67ZM171.10 0.77L171.10 0.77L171.10 0.77Q168.90 0.77 167.46-0.70L167.46-0.70L167.46-0.70Q166.02-2.18 166.02-4.83L166.02-4.83L166.02-4.83Q166.02-7.49 169.18-21.79L169.18-21.79L169.18-21.79Q172.35-36.10 172.35-42.43L172.35-42.43L171.97-45.25L171.97-45.25Q176.96-46.98 181.31-46.98L181.31-46.98L181.31-46.98Q181.95-46.08 181.95-43.84L181.95-43.84L181.95-43.84Q181.95-38.72 178.72-24.03L178.72-24.03L178.72-24.03Q175.49-9.34 175.49-6.94L175.49-6.94L175.49-6.94Q175.49-4.54 176.06-4.54L176.06-4.54L180.54-6.14L181.70-3.90L181.70-3.90Q179.52-2.18 176.42-0.70L176.42-0.70L176.42-0.70Q173.31 0.77 171.10 0.77ZM202.24-26.50L202.24-26.50L202.24-26.50Q202.37-26.62 202.94-28.16L202.94-28.16L202.94-28.16Q205.95-28.16 211.01-26.37L211.01-26.37L211.01-26.37Q209.41-21.06 208.45-15.26L208.45-15.26L208.45-15.26Q207.49-9.47 207.49-7.01L207.49-7.01L207.49-7.01Q207.49-4.54 208-4.54L208-4.54L208-4.54Q208.38-4.54 210.82-5.76L210.82-5.76L211.58-6.14L212.74-3.90L212.74-3.90Q212.16-3.39 211.23-2.62L211.23-2.62L211.23-2.62Q210.30-1.86 207.74-0.54L207.74-0.54L207.74-0.54Q205.18 0.77 203.14 0.77L203.14 0.77L203.14 0.77Q199.17 0.77 198.53-2.82L198.53-2.82L198.53-2.82Q194.43 0.77 191.14 0.77L191.14 0.77L191.14 0.77Q187.84 0.77 185.57-1.79L185.57-1.79L185.57-1.79Q183.30-4.35 183.30-9.86L183.30-9.86L183.30-9.86Q183.30-18.43 186.82-23.39L186.82-23.39L186.82-23.39Q190.34-28.35 195.33-28.35L195.33-28.35L195.33-28.35Q198.91-28.35 202.24-26.50ZM194.94-4.67L194.94-4.67L194.94-4.67Q196.48-4.67 198.40-5.89L198.40-5.89L198.40-5.89Q198.85-14.91 201.41-23.74L201.41-23.74L201.41-23.74Q199.49-24.58 198.14-24.58L198.14-24.58L198.14-24.58Q195.84-24.58 194.21-20.06L194.21-20.06L194.21-20.06Q192.58-15.55 192.58-10.11L192.58-10.11L192.58-10.11Q192.58-4.67 194.94-4.67Z" fill="#ffffff"></path></g></g><style>text {
  font-size: 64px;
  font-family: Arial Black;
  dominant-baseline: central;
  text-anchor: middle;
}</style></svg>